<?xml version="1.0" encoding="UTF-8" standalone="no"?>
<!-- Created with Inkscape (http://www.inkscape.org/) -->

<svg
   width="512"
   height="512"
   viewBox="0 0 512 512"
   version="1.1"
   id="svg1"
   xml:space="preserve"
   inkscape:version="1.4.2 (ebf0e940, 2025-05-08)"
   sodipodi:docname="naafi-icon.svg"
   xmlns:inkscape="http://www.inkscape.org/namespaces/inkscape"
   xmlns:sodipodi="http://sodipodi.sourceforge.net/DTD/sodipodi-0.dtd"
   xmlns="http://www.w3.org/2000/svg"
   xmlns:svg="http://www.w3.org/2000/svg"><sodipodi:namedview
     id="namedview1"
     pagecolor="#ffffff"
     bordercolor="#000000"
     borderopacity="0.25"
     inkscape:showpageshadow="2"
     inkscape:pageopacity="0.0"
     inkscape:pagecheckerboard="0"
     inkscape:deskcolor="#d1d1d1"
     inkscape:document-units="px"
     inkscape:zoom="0.28726213"
     inkscape:cx="254.1233"
     inkscape:cy="254.1233"
     inkscape:window-width="1800"
     inkscape:window-height="1097"
     inkscape:window-x="0"
     inkscape:window-y="44"
     inkscape:window-maximized="1"
     inkscape:current-layer="layer1" /><defs
     id="defs1"><linearGradient
       id="swatch1"
       inkscape:swatch="solid"><stop
         style="stop-color:#000000;stop-opacity:1;"
         offset="0"
         id="stop1" /></linearGradient></defs><g
     inkscape:label="Calque 1"
     inkscape:groupmode="layer"
     id="layer1"><rect
       style="fill:#000000;fill-opacity:1;stroke:#0000ff;stroke-width:0.998581;stroke-opacity:1"
       id="rect1"
       width="511.00143"
       height="511.0014"
       x="0.49928284"
       y="0.4992981"
       ry="59.110218" /><path
       d="m 374.45682,72.901515 c 1.92013,1.55177 1.92013,1.55177 3.87906,3.13488 27.02328,22.990601 43.0271,57.931305 47.12287,92.868775 0.47089,7.78261 0.58533,15.5499 0.56252,23.34463 -8.1e-4,1.05312 -0.002,2.10622 -0.003,3.19124 -0.15621,43.97552 -14.55295,81.27178 -45.37424,113.25068 -7.02145,6.86042 -14.4254,12.44935 -22.68836,17.71942 -1.15053,0.76767 -2.30106,1.53534 -3.48646,2.32626 -19.41049,12.4163 -42.96328,20.31434 -65.88642,22.4961 -1.33878,0.12885 -2.67757,0.25783 -4.05692,0.39064 -1.52119,0.14251 -1.52119,0.14251 -3.0731,0.28797 0.015,1.77913 0.015,1.77913 0.0303,3.59419 0.0903,11.18969 0.15872,22.3792 0.20288,33.56916 0.0234,5.75259 0.0554,11.50488 0.10635,17.25729 0.0489,5.5537 0.0758,11.10711 0.0875,16.66101 0.009,2.11653 0.0245,4.23307 0.0489,6.3495 0.0327,2.96924 0.0345,5.93877 0.0351,8.90818 0.015,2.53326 0.015,2.53326 0.0303,5.1177 -0.83679,7.03031 -4.08504,11.79551 -9.5415,16.17205 -7.21526,5.41144 -13.75254,5.90868 -22.50085,4.87519 -7.98418,-2.72364 -12.46629,-7.70773 -16.50063,-15.00057 -1.62692,-4.88077 -1.68077,-8.41381 -1.67036,-13.54849 1.8e-4,-2.79249 1.8e-4,-2.79249 3.5e-4,-5.6414 0.007,-2.03142 0.0154,-4.06286 0.0234,-6.09428 0.003,-2.07873 0.004,-4.15745 0.006,-6.23618 0.006,-5.46728 0.0204,-10.93449 0.0371,-16.40173 0.0153,-5.5805 0.0222,-11.16099 0.0297,-16.74151 0.0161,-10.94674 0.0417,-21.89342 0.0732,-32.84011 -1.66574,-0.17089 -3.33146,-0.34177 -5.04767,-0.51784 -12.13141,-1.29825 -23.87716,-2.70008 -35.54762,-6.41993 -1.86791,-0.58209 -1.86791,-0.58209 -3.77359,-1.17595 -20.00313,-6.50402 -36.86167,-16.1038 -53.13383,-29.3877 -0.94362,-0.69806 -1.88726,-1.39611 -2.85948,-2.11532 -25.54445,-19.70057 -39.383719,-52.90655 -44.458599,-83.86805 -1.02974,-8.31348 -1.02014,-16.57511 -1.0441,-24.94394 -0.015,-3.02836 -0.061,-6.05511 -0.10845,-9.08311 -0.15236,-38.97783 14.570429,-76.2638 40.970349,-104.998124 0.66277,-0.72633 1.32552,-1.45267 2.00838,-2.201021 29.40629,-31.87216 29.40629,-31.87216 46.54425,-34.30427 8.53825,-0.13306 13.97324,0.34334 20.44999,6.50415 4.65811,7.42386 4.829,12.45743 3.04699,20.68438 -2.16638,4.64458 -5.29909,7.33566 -9.04722,10.816821 -27.68267,25.966194 -47.89637,58.482764 -49.50188,97.503704 -0.0899,2.01585 -0.0899,2.01585 -0.18164,4.07241 -0.73524,32.91236 8.28852,64.39311 31.21993,88.56196 14.0106,13.63129 29.62584,21.58972 48.3241,26.88969 1.17228,0.33827 2.34457,0.67655 3.55237,1.02507 2.86115,0.82465 5.72468,1.64096 8.58871,2.45553 -0.005,-0.95196 -0.009,-1.90393 -0.012,-2.88476 -0.0997,-23.26734 -0.17405,-46.53461 -0.2206,-69.80213 -0.0231,-11.25244 -0.0546,-22.50474 -0.10635,-33.75709 -0.0451,-9.8186 -0.0739,-19.63711 -0.084,-29.45582 -0.006,-5.18894 -0.0192,-10.37756 -0.0524,-15.56639 -0.42495,-69.291874 -0.42495,-69.291874 24.47622,-94.543145 34.50734,-30.31758 85.69314,-19.41296 118.5045,7.50028 z m -84.1907,22.782121 c -10.24111,15.361664 -9.04115,33.616144 -8.98313,51.392704 -2.1e-4,1.78738 -4.4e-4,3.57475 -6.6e-4,5.4163 8.5e-4,4.84619 0.009,9.6923 0.0189,14.53847 0.009,5.08503 0.0105,10.17008 0.012,15.2551 0.005,9.60464 0.017,19.20925 0.0319,28.81389 0.0168,10.94496 0.025,21.88993 0.0326,32.8349 0.0156,22.49187 0.042,44.98372 0.0755,67.47557 2.14748,-0.21503 4.29428,-0.43681 6.44079,-0.6614 1.19558,-0.12271 2.39115,-0.24555 3.62295,-0.37203 25.46107,-3.4569 47.30298,-21.26689 62.41947,-41.01504 20.14504,-30.33245 24.78684,-69.15753 18.24459,-104.47589 -5.71797,-27.4227 -18.44746,-52.73526 -41.50708,-69.483834 -13.49189,-8.821611 -28.27538,-12.207981 -40.40779,0.28126 z"
       fill="#000000"
       id="path1"
       style="fill:#ffffff;fill-opacity:1;stroke-width:1.50006" /></g></svg>
