<?xml version="1.0" encoding="UTF-8" standalone="no"?>
<svg
   id="svg8"
   version="1.1"
   viewBox="0 0 269.87507 63.499995"
   height="240"
   width="1020"
   sodipodi:docname="naafi-logo.svg"
   xml:space="preserve"
   inkscape:version="1.4.2 (ebf0e940, 2025-05-08)"
   xmlns:inkscape="http://www.inkscape.org/namespaces/inkscape"
   xmlns:sodipodi="http://sodipodi.sourceforge.net/DTD/sodipodi-0.dtd"
   xmlns:xlink="http://www.w3.org/1999/xlink"
   xmlns="http://www.w3.org/2000/svg"
   xmlns:svg="http://www.w3.org/2000/svg"
   xmlns:rdf="http://www.w3.org/1999/02/22-rdf-syntax-ns#"
   xmlns:cc="http://creativecommons.org/ns#"
   xmlns:dc="http://purl.org/dc/elements/1.1/"><sodipodi:namedview
     id="namedview1"
     pagecolor="#ffffff"
     bordercolor="#000000"
     borderopacity="0.25"
     inkscape:showpageshadow="2"
     inkscape:pageopacity="0.0"
     inkscape:pagecheckerboard="0"
     inkscape:deskcolor="#d1d1d1"
     inkscape:document-units="mm"
     inkscape:zoom="1.2165109"
     inkscape:cx="512.94238"
     inkscape:cy="111.38412"
     inkscape:window-width="1800"
     inkscape:window-height="1036"
     inkscape:window-x="0"
     inkscape:window-y="44"
     inkscape:window-maximized="1"
     inkscape:current-layer="svg8" /><defs
     id="defs2"><linearGradient
       id="swatch5"
       inkscape:swatch="solid"><stop
         style="stop-color:#000000;stop-opacity:1;"
         offset="0"
         id="stop5" /></linearGradient><rect
       x="253.18311"
       y="26.304737"
       width="284.41998"
       height="208.79385"
       id="rect1" /><linearGradient
       inkscape:collect="always"
       xlink:href="#swatch5"
       id="linearGradient5" /></defs><metadata
     id="metadata5"><rdf:RDF><cc:Work
         rdf:about=""><dc:format>image/svg+xml</dc:format><dc:type
           rdf:resource="http://purl.org/dc/dcmitype/StillImage" /></cc:Work></rdf:RDF></metadata><g
     id="g3"><circle
       style="fill:#000000;fill-opacity:1;stroke-width:0.264583"
       id="path2"
       cx="31.971556"
       cy="31.812334"
       r="31.971558" /><path
       d="M 27.022551,5.8345222 V 7.2301299 C 21.090147,8.7032068 18.12394,14.104605 18.12394,23.434327 c 0,10.105106 3.691021,16.049233 11.073061,17.83238 V 18.743732 c 0,-3.282168 0.214792,-5.672763 0.644364,-7.171783 0.42959,-1.524825 1.369114,-2.85577 2.818577,-3.9928334 1.47643,-1.1629785 3.248125,-1.7444679 5.31508,-1.7444679 3.62394,0 6.979358,1.641084 10.066245,4.9232523 3.113835,3.282168 4.670749,7.559335 4.670749,12.831504 0,4.936155 -1.59712,9.342554 -4.791356,13.219198 -3.167584,3.876644 -7.959161,6.086329 -14.37473,6.629056 V 59.370491 H 29.197241 V 48.369977 43.437658 C 23.613844,42.972469 19.131004,40.969567 15.748719,37.428951 12.393228,33.862517 10.715486,29.236432 10.715486,23.550697 c 0,-5.117063 1.530113,-9.290874 4.590339,-12.521434 3.060233,-3.2563636 6.965962,-4.9879019 11.717186,-5.1946153 z m 6.522928,35.4320998 c 8.455713,-1.214657 12.683575,-6.473924 12.683575,-15.777797 0,-4.290071 -0.912648,-7.88238 -2.737946,-10.776925 -1.798496,-2.92035 -3.919132,-4.380524 -6.361892,-4.380524 -0.885791,0 -1.637415,0.310118 -2.254863,0.930356 -0.59036,0.594419 -0.966348,1.305154 -1.127973,2.132202 -0.134364,0.827022 -0.20155,2.455204 -0.20155,4.884547 z"
       id="path1"
       style="fill:#ffffff;fill-opacity:1;stroke-width:0.213231"
       sodipodi:nodetypes="ccscsccscscccccccsccccscscccc" /></g><text
     xml:space="preserve"
     transform="scale(0.26458333)"
     id="text1"
     style="text-align:start;writing-mode:lr-tb;direction:ltr;white-space:pre;shape-inside:url(#rect1);fill:#969696;fill-opacity:1" /><text
     xml:space="preserve"
     style="font-style:normal;font-variant:normal;font-weight:normal;font-stretch:normal;font-size:75.4944px;font-family:Kailasa;-inkscape-font-specification:Kailasa;text-align:start;writing-mode:lr-tb;direction:ltr;text-anchor:start;fill:#000000;stroke-width:0.264583"
     x="68.945488"
     y="59.367844"
     id="text2"><tspan
       sodipodi:role="line"
       id="tspan2"
       style="font-style:normal;font-variant:normal;font-weight:bold;font-stretch:normal;font-size:75.4944px;font-family:Quicksand;-inkscape-font-specification:'Quicksand Bold';stroke-width:0.264583"
       x="68.945488"
       y="59.367844">Naafi</tspan></text></svg>
